# xmcd
#
# Track frame offsets: 
#        150
#        20337
#        36541
#        55255
#        70859
#        86606
#        105637
#        117463
#        132101
#        146143
#        160517
#        176104
#        197888
#        228024
#        240292
#
# Disc length: 3411 seconds
#
# Revision: 0
# Processed by: cddbd v1.5.1PL2 Copyright (c) Steve Scherf et al.
# Submitted via: ExactAudioCopy v0.95a4
#
DISCID=c90d510f
DTITLE=Hank Williams III - First Avenue - Minneapolis MN - 5-31-00 - D
DTITLE=isc 1
DYEAR=2000
DGENRE=Country
TTITLE0=Drinkin' Wine Spodie Odie
TTITLE1=Texasee
TTITLE2=Cocaine Blues
TTITLE3=I Don't Know
TTITLE4=One Horse Town
TTITLE5=Ramblin' Kind of Man
TTITLE6=Johnny Law
TTITLE7=Hillbilly Hellraiser
TTITLE8=If the Shoe Fits, Wear It
TTITLE9=Forgotten Blues
TTITLE10=Move It On Over
TTITLE11=Family Tradition
TTITLE12=Orange Blossom Special
TTITLE13=Walkin' in Sorrow
TTITLE14=Dick in Dixie
EXTD=
EXTT0=
EXTT1=
EXTT2=
EXTT3=
EXTT4=
EXTT5=
EXTT6=
EXTT7=
EXTT8=
EXTT9=
EXTT10=
EXTT11=
EXTT12=
EXTT13=
EXTT14=
PLAYORDER=
